<svg viewBox="0 0 512 512" xmlns="http://www.w3.org/2000/svg"><path fill="#000000" d="M104.5,121.3 C101.8,112.5 110.1,104.2 119.5,106.8 L387.2,120.4 C397.6,120.9 405.5,130.1 404.2,140.4 L392.8,321.1 C392.1,332.4 381.8,340.5 370.6,339.2 L310.5,332.1 L325.2,368.4 C327.5,374.1 324.2,380.5 318.3,382.2 L285.4,391.5 L195.2,382.4 C189.3,381.8 185.3,376.2 186.8,370.4 L198.5,324.9 L132.8,318.5 C121.4,317.4 112.9,307.3 113.8,295.9 L122.5,135.4 L104.5,121.3 Z M143.5,152.4 L138.2,289.4 C137.9,294.8 142.1,299.4 147.5,299.9 L363.8,315.6 C369.5,316.0 374.4,311.5 374.6,305.8 L378.2,163.5 C378.3,158.1 373.8,153.5 368.4,153.1 L148.5,147.4 C145.8,147.3 143.6,149.5 143.5,152.4 Z M185.3,195.6 C183.1,192.8 183.5,188.8 186.3,186.6 C189.1,184.4 193.1,184.8 195.3,187.6 L228.4,222.5 C230.8,225.0 230.8,228.9 228.4,231.4 L196.5,268.2 C194.4,271.1 190.4,271.6 187.5,269.5 C184.6,267.4 184.1,263.4 186.2,260.5 L212.5,226.9 L185.3,195.6 Z M248.5,265.4 C248.5,261.8 251.4,258.9 255.0,258.9 L315.0,258.9 C318.6,258.9 321.5,261.8 321.5,265.4 C321.5,269.0 318.6,271.9 315.0,271.9 L255.0,271.9 C251.4,271.9 248.5,269.0 248.5,265.4 Z"/></svg>